<svg width="36" height="36" viewBox="0 0 36 36" fill="none" xmlns="http://www.w3.org/2000/svg">
<path d="M12.6668 33.9996C15.6108 33.9996 18.0001 31.6103 18.0001 28.6663V23.333H12.6668C9.72281 23.333 7.3335 25.7223 7.3335 28.6663C7.3335 31.6103 9.72281 33.9996 12.6668 33.9996Z" fill="#0ACF83" style="fill:#0ACF83;fill:color(display-p3 0.0392 0.8118 0.5137);fill-opacity:1;"/>
<path d="M7.3335 18.0003C7.3335 15.0563 9.72281 12.667 12.6668 12.667H18.0001V23.3336H12.6668C9.72281 23.3336 7.3335 20.9443 7.3335 18.0003Z" fill="#A259FF" style="fill:#A259FF;fill:color(display-p3 0.6353 0.3490 1.0000);fill-opacity:1;"/>
<path d="M7.3335 7.3333C7.3335 4.38932 9.72281 2 12.6668 2H18.0001V12.6666H12.6668C9.72281 12.6666 7.3335 10.2773 7.3335 7.3333Z" fill="#F24E1E" style="fill:#F24E1E;fill:color(display-p3 0.9490 0.3059 0.1176);fill-opacity:1;"/>
<path d="M18 2H23.3333C26.2773 2 28.6666 4.38932 28.6666 7.3333C28.6666 10.2773 26.2773 12.6666 23.3333 12.6666H18V2Z" fill="#FF7262" style="fill:#FF7262;fill:color(display-p3 1.0000 0.4471 0.3843);fill-opacity:1;"/>
<path d="M28.6666 18.0003C28.6666 20.9443 26.2773 23.3336 23.3333 23.3336C20.3893 23.3336 18 20.9443 18 18.0003C18 15.0563 20.3893 12.667 23.3333 12.667C26.2773 12.667 28.6666 15.0563 28.6666 18.0003Z" fill="#1ABCFE" style="fill:#1ABCFE;fill:color(display-p3 0.1020 0.7373 0.9961);fill-opacity:1;"/>
</svg>
